<?xml version="1.0" encoding="utf-8" standalone="no"?>
<!DOCTYPE svg PUBLIC "-//W3C//DTD SVG 1.1//EN"
  "http://www.w3.org/Graphics/SVG/1.1/DTD/svg11.dtd">
<svg xmlns:xlink="http://www.w3.org/1999/xlink" width="504pt" height="288pt" viewBox="0 0 504 288" xmlns="http://www.w3.org/2000/svg" version="1.1">
 <metadata>
  <rdf:RDF xmlns:dc="http://purl.org/dc/elements/1.1/" xmlns:cc="http://creativecommons.org/ns#" xmlns:rdf="http://www.w3.org/1999/02/22-rdf-syntax-ns#">
   <cc:Work>
    <dc:type rdf:resource="http://purl.org/dc/dcmitype/StillImage"/>
    <dc:date>2025-09-13T17:19:40.745961</dc:date>
    <dc:format>image/svg+xml</dc:format>
    <dc:creator>
     <cc:Agent>
      <dc:title>Matplotlib v3.10.6, https://matplotlib.org/</dc:title>
     </cc:Agent>
    </dc:creator>
   </cc:Work>
  </rdf:RDF>
 </metadata>
 <defs>
  <style type="text/css">*{stroke-linejoin: round; stroke-linecap: butt}</style>
 </defs>
 <g id="figure_1">
  <g id="patch_1">
   <path d="M 0 288 
L 504 288 
L 504 0 
L 0 0 
z
" style="fill: #ffffff"/>
  </g>
  <g id="axes_1">
   <g id="patch_2">
    <path d="M 50.587143 244.548571 
L 483.409286 244.548571 
L 483.409286 28.165714 
L 50.587143 28.165714 
z
" style="fill: #ffffff"/>
   </g>
   <g id="matplotlib.axis_1">
    <g id="xtick_1">
     <g id="line2d_1">
      <path d="M 50.587143 244.548571 
L 50.587143 28.165714 
" clip-path="url(#pd5e3a0ba26)" style="fill: none; stroke: #b0b0b0; stroke-opacity: 0.3; stroke-width: 0.8; stroke-linecap: square"/>
     </g>
     <g id="line2d_2">
      <defs>
       <path id="m43fb90f5f8" d="M 0 0 
L 0 3.5 
" style="stroke: #000000; stroke-width: 0.8"/>
      </defs>
      <g>
       <use xlink:href="#m43fb90f5f8" x="50.587143" y="244.548571" style="stroke: #000000; stroke-width: 0.8"/>
      </g>
     </g>
     <g id="text_1">
      <!-- 0.0 -->
      <g transform="translate(41.840424 259.906853) scale(0.11 -0.11)">
       <defs>
        <path id="DejaVuSans-30" d="M 2034 4250 
Q 1547 4250 1301 3770 
Q 1056 3291 1056 2328 
Q 1056 1369 1301 889 
Q 1547 409 2034 409 
Q 2525 409 2770 889 
Q 3016 1369 3016 2328 
Q 3016 3291 2770 3770 
Q 2525 4250 2034 4250 
z
M 2034 4750 
Q 2819 4750 3233 4129 
Q 3647 3509 3647 2328 
Q 3647 1150 3233 529 
Q 2819 -91 2034 -91 
Q 1250 -91 836 529 
Q 422 1150 422 2328 
Q 422 3509 836 4129 
Q 1250 4750 2034 4750 
z
" transform="scale(0.015625)"/>
        <path id="DejaVuSans-2e" d="M 684 794 
L 1344 794 
L 1344 0 
L 684 0 
L 684 794 
z
" transform="scale(0.015625)"/>
       </defs>
       <use xlink:href="#DejaVuSans-30"/>
       <use xlink:href="#DejaVuSans-2e" transform="translate(63.623047 0)"/>
       <use xlink:href="#DejaVuSans-30" transform="translate(95.410156 0)"/>
      </g>
     </g>
    </g>
    <g id="xtick_2">
     <g id="line2d_3">
      <path d="M 137.151571 244.548571 
L 137.151571 28.165714 
" clip-path="url(#pd5e3a0ba26)" style="fill: none; stroke: #b0b0b0; stroke-opacity: 0.3; stroke-width: 0.8; stroke-linecap: square"/>
     </g>
     <g id="line2d_4">
      <g>
       <use xlink:href="#m43fb90f5f8" x="137.151571" y="244.548571" style="stroke: #000000; stroke-width: 0.8"/>
      </g>
     </g>
     <g id="text_2">
      <!-- 0.1 -->
      <g transform="translate(128.404853 259.906853) scale(0.11 -0.11)">
       <defs>
        <path id="DejaVuSans-31" d="M 794 531 
L 1825 531 
L 1825 4091 
L 703 3866 
L 703 4441 
L 1819 4666 
L 2450 4666 
L 2450 531 
L 3481 531 
L 3481 0 
L 794 0 
L 794 531 
z
" transform="scale(0.015625)"/>
       </defs>
       <use xlink:href="#DejaVuSans-30"/>
       <use xlink:href="#DejaVuSans-2e" transform="translate(63.623047 0)"/>
       <use xlink:href="#DejaVuSans-31" transform="translate(95.410156 0)"/>
      </g>
     </g>
    </g>
    <g id="xtick_3">
     <g id="line2d_5">
      <path d="M 223.716 244.548571 
L 223.716 28.165714 
" clip-path="url(#pd5e3a0ba26)" style="fill: none; stroke: #b0b0b0; stroke-opacity: 0.3; stroke-width: 0.8; stroke-linecap: square"/>
     </g>
     <g id="line2d_6">
      <g>
       <use xlink:href="#m43fb90f5f8" x="223.716" y="244.548571" style="stroke: #000000; stroke-width: 0.8"/>
      </g>
     </g>
     <g id="text_3">
      <!-- 0.2 -->
      <g transform="translate(214.969281 259.906853) scale(0.11 -0.11)">
       <defs>
        <path id="DejaVuSans-32" d="M 1228 531 
L 3431 531 
L 3431 0 
L 469 0 
L 469 531 
Q 828 903 1448 1529 
Q 2069 2156 2228 2338 
Q 2531 2678 2651 2914 
Q 2772 3150 2772 3378 
Q 2772 3750 2511 3984 
Q 2250 4219 1831 4219 
Q 1534 4219 1204 4116 
Q 875 4013 500 3803 
L 500 4441 
Q 881 4594 1212 4672 
Q 1544 4750 1819 4750 
Q 2544 4750 2975 4387 
Q 3406 4025 3406 3419 
Q 3406 3131 3298 2873 
Q 3191 2616 2906 2266 
Q 2828 2175 2409 1742 
Q 1991 1309 1228 531 
z
" transform="scale(0.015625)"/>
       </defs>
       <use xlink:href="#DejaVuSans-30"/>
       <use xlink:href="#DejaVuSans-2e" transform="translate(63.623047 0)"/>
       <use xlink:href="#DejaVuSans-32" transform="translate(95.410156 0)"/>
      </g>
     </g>
    </g>
    <g id="xtick_4">
     <g id="line2d_7">
      <path d="M 310.280429 244.548571 
L 310.280429 28.165714 
" clip-path="url(#pd5e3a0ba26)" style="fill: none; stroke: #b0b0b0; stroke-opacity: 0.3; stroke-width: 0.8; stroke-linecap: square"/>
     </g>
     <g id="line2d_8">
      <g>
       <use xlink:href="#m43fb90f5f8" x="310.280429" y="244.548571" style="stroke: #000000; stroke-width: 0.8"/>
      </g>
     </g>
     <g id="text_4">
      <!-- 0.3 -->
      <g transform="translate(301.53371 259.906853) scale(0.11 -0.11)">
       <defs>
        <path id="DejaVuSans-33" d="M 2597 2516 
Q 3050 2419 3304 2112 
Q 3559 1806 3559 1356 
Q 3559 666 3084 287 
Q 2609 -91 1734 -91 
Q 1441 -91 1130 -33 
Q 819 25 488 141 
L 488 750 
Q 750 597 1062 519 
Q 1375 441 1716 441 
Q 2309 441 2620 675 
Q 2931 909 2931 1356 
Q 2931 1769 2642 2001 
Q 2353 2234 1838 2234 
L 1294 2234 
L 1294 2753 
L 1863 2753 
Q 2328 2753 2575 2939 
Q 2822 3125 2822 3475 
Q 2822 3834 2567 4026 
Q 2313 4219 1838 4219 
Q 1578 4219 1281 4162 
Q 984 4106 628 3988 
L 628 4550 
Q 988 4650 1302 4700 
Q 1616 4750 1894 4750 
Q 2613 4750 3031 4423 
Q 3450 4097 3450 3541 
Q 3450 3153 3228 2886 
Q 3006 2619 2597 2516 
z
" transform="scale(0.015625)"/>
       </defs>
       <use xlink:href="#DejaVuSans-30"/>
       <use xlink:href="#DejaVuSans-2e" transform="translate(63.623047 0)"/>
       <use xlink:href="#DejaVuSans-33" transform="translate(95.410156 0)"/>
      </g>
     </g>
    </g>
    <g id="xtick_5">
     <g id="line2d_9">
      <path d="M 396.844857 244.548571 
L 396.844857 28.165714 
" clip-path="url(#pd5e3a0ba26)" style="fill: none; stroke: #b0b0b0; stroke-opacity: 0.3; stroke-width: 0.8; stroke-linecap: square"/>
     </g>
     <g id="line2d_10">
      <g>
       <use xlink:href="#m43fb90f5f8" x="396.844857" y="244.548571" style="stroke: #000000; stroke-width: 0.8"/>
      </g>
     </g>
     <g id="text_5">
      <!-- 0.4 -->
      <g transform="translate(388.098138 259.906853) scale(0.11 -0.11)">
       <defs>
        <path id="DejaVuSans-34" d="M 2419 4116 
L 825 1625 
L 2419 1625 
L 2419 4116 
z
M 2253 4666 
L 3047 4666 
L 3047 1625 
L 3713 1625 
L 3713 1100 
L 3047 1100 
L 3047 0 
L 2419 0 
L 2419 1100 
L 313 1100 
L 313 1709 
L 2253 4666 
z
" transform="scale(0.015625)"/>
       </defs>
       <use xlink:href="#DejaVuSans-30"/>
       <use xlink:href="#DejaVuSans-2e" transform="translate(63.623047 0)"/>
       <use xlink:href="#DejaVuSans-34" transform="translate(95.410156 0)"/>
      </g>
     </g>
    </g>
    <g id="xtick_6">
     <g id="line2d_11">
      <path d="M 483.409286 244.548571 
L 483.409286 28.165714 
" clip-path="url(#pd5e3a0ba26)" style="fill: none; stroke: #b0b0b0; stroke-opacity: 0.3; stroke-width: 0.8; stroke-linecap: square"/>
     </g>
     <g id="line2d_12">
      <g>
       <use xlink:href="#m43fb90f5f8" x="483.409286" y="244.548571" style="stroke: #000000; stroke-width: 0.8"/>
      </g>
     </g>
     <g id="text_6">
      <!-- 0.5 -->
      <g transform="translate(474.662567 259.906853) scale(0.11 -0.11)">
       <defs>
        <path id="DejaVuSans-35" d="M 691 4666 
L 3169 4666 
L 3169 4134 
L 1269 4134 
L 1269 2991 
Q 1406 3038 1543 3061 
Q 1681 3084 1819 3084 
Q 2600 3084 3056 2656 
Q 3513 2228 3513 1497 
Q 3513 744 3044 326 
Q 2575 -91 1722 -91 
Q 1428 -91 1123 -41 
Q 819 9 494 109 
L 494 744 
Q 775 591 1075 516 
Q 1375 441 1709 441 
Q 2250 441 2565 725 
Q 2881 1009 2881 1497 
Q 2881 1984 2565 2268 
Q 2250 2553 1709 2553 
Q 1456 2553 1204 2497 
Q 953 2441 691 2322 
L 691 4666 
z
" transform="scale(0.015625)"/>
       </defs>
       <use xlink:href="#DejaVuSans-30"/>
       <use xlink:href="#DejaVuSans-2e" transform="translate(63.623047 0)"/>
       <use xlink:href="#DejaVuSans-35" transform="translate(95.410156 0)"/>
      </g>
     </g>
    </g>
    <g id="text_7">
     <!-- time (s) -->
     <g transform="translate(245.667667 274.55279) scale(0.11 -0.11)">
      <defs>
       <path id="DejaVuSans-74" d="M 1172 4494 
L 1172 3500 
L 2356 3500 
L 2356 3053 
L 1172 3053 
L 1172 1153 
Q 1172 725 1289 603 
Q 1406 481 1766 481 
L 2356 481 
L 2356 0 
L 1766 0 
Q 1100 0 847 248 
Q 594 497 594 1153 
L 594 3053 
L 172 3053 
L 172 3500 
L 594 3500 
L 594 4494 
L 1172 4494 
z
" transform="scale(0.015625)"/>
       <path id="DejaVuSans-69" d="M 603 3500 
L 1178 3500 
L 1178 0 
L 603 0 
L 603 3500 
z
M 603 4863 
L 1178 4863 
L 1178 4134 
L 603 4134 
L 603 4863 
z
" transform="scale(0.015625)"/>
       <path id="DejaVuSans-6d" d="M 3328 2828 
Q 3544 3216 3844 3400 
Q 4144 3584 4550 3584 
Q 5097 3584 5394 3201 
Q 5691 2819 5691 2113 
L 5691 0 
L 5113 0 
L 5113 2094 
Q 5113 2597 4934 2840 
Q 4756 3084 4391 3084 
Q 3944 3084 3684 2787 
Q 3425 2491 3425 1978 
L 3425 0 
L 2847 0 
L 2847 2094 
Q 2847 2600 2669 2842 
Q 2491 3084 2119 3084 
Q 1678 3084 1418 2786 
Q 1159 2488 1159 1978 
L 1159 0 
L 581 0 
L 581 3500 
L 1159 3500 
L 1159 2956 
Q 1356 3278 1631 3431 
Q 1906 3584 2284 3584 
Q 2666 3584 2933 3390 
Q 3200 3197 3328 2828 
z
" transform="scale(0.015625)"/>
       <path id="DejaVuSans-65" d="M 3597 1894 
L 3597 1613 
L 953 1613 
Q 991 1019 1311 708 
Q 1631 397 2203 397 
Q 2534 397 2845 478 
Q 3156 559 3463 722 
L 3463 178 
Q 3153 47 2828 -22 
Q 2503 -91 2169 -91 
Q 1331 -91 842 396 
Q 353 884 353 1716 
Q 353 2575 817 3079 
Q 1281 3584 2069 3584 
Q 2775 3584 3186 3129 
Q 3597 2675 3597 1894 
z
M 3022 2063 
Q 3016 2534 2758 2815 
Q 2500 3097 2075 3097 
Q 1594 3097 1305 2825 
Q 1016 2553 972 2059 
L 3022 2063 
z
" transform="scale(0.015625)"/>
       <path id="DejaVuSans-20" transform="scale(0.015625)"/>
       <path id="DejaVuSans-28" d="M 1984 4856 
Q 1566 4138 1362 3434 
Q 1159 2731 1159 2009 
Q 1159 1288 1364 580 
Q 1569 -128 1984 -844 
L 1484 -844 
Q 1016 -109 783 600 
Q 550 1309 550 2009 
Q 550 2706 781 3412 
Q 1013 4119 1484 4856 
L 1984 4856 
z
" transform="scale(0.015625)"/>
       <path id="DejaVuSans-73" d="M 2834 3397 
L 2834 2853 
Q 2591 2978 2328 3040 
Q 2066 3103 1784 3103 
Q 1356 3103 1142 2972 
Q 928 2841 928 2578 
Q 928 2378 1081 2264 
Q 1234 2150 1697 2047 
L 1894 2003 
Q 2506 1872 2764 1633 
Q 3022 1394 3022 966 
Q 3022 478 2636 193 
Q 2250 -91 1575 -91 
Q 1294 -91 989 -36 
Q 684 19 347 128 
L 347 722 
Q 666 556 975 473 
Q 1284 391 1588 391 
Q 1994 391 2212 530 
Q 2431 669 2431 922 
Q 2431 1156 2273 1281 
Q 2116 1406 1581 1522 
L 1381 1569 
Q 847 1681 609 1914 
Q 372 2147 372 2553 
Q 372 3047 722 3315 
Q 1072 3584 1716 3584 
Q 2034 3584 2315 3537 
Q 2597 3491 2834 3397 
z
" transform="scale(0.015625)"/>
       <path id="DejaVuSans-29" d="M 513 4856 
L 1013 4856 
Q 1481 4119 1714 3412 
Q 1947 2706 1947 2009 
Q 1947 1309 1714 600 
Q 1481 -109 1013 -844 
L 513 -844 
Q 928 -128 1133 580 
Q 1338 1288 1338 2009 
Q 1338 2731 1133 3434 
Q 928 4138 513 4856 
z
" transform="scale(0.015625)"/>
      </defs>
      <use xlink:href="#DejaVuSans-74"/>
      <use xlink:href="#DejaVuSans-69" transform="translate(39.208984 0)"/>
      <use xlink:href="#DejaVuSans-6d" transform="translate(66.992188 0)"/>
      <use xlink:href="#DejaVuSans-65" transform="translate(164.404297 0)"/>
      <use xlink:href="#DejaVuSans-20" transform="translate(225.927734 0)"/>
      <use xlink:href="#DejaVuSans-28" transform="translate(257.714844 0)"/>
      <use xlink:href="#DejaVuSans-73" transform="translate(296.728516 0)"/>
      <use xlink:href="#DejaVuSans-29" transform="translate(348.828125 0)"/>
     </g>
    </g>
   </g>
   <g id="matplotlib.axis_2">
    <g id="ytick_1">
     <g id="line2d_13">
      <path d="M 50.587143 234.918684 
L 483.409286 234.918684 
" clip-path="url(#pd5e3a0ba26)" style="fill: none; stroke: #b0b0b0; stroke-opacity: 0.3; stroke-width: 0.8; stroke-linecap: square"/>
     </g>
     <g id="line2d_14">
      <defs>
       <path id="mde6cfbf446" d="M 0 0 
L -3.5 0 
" style="stroke: #000000; stroke-width: 0.8"/>
      </defs>
      <g>
       <use xlink:href="#mde6cfbf446" x="50.587143" y="234.918684" style="stroke: #000000; stroke-width: 0.8"/>
      </g>
     </g>
     <g id="text_8">
      <!-- 0.0 -->
      <g transform="translate(26.093705 239.097825) scale(0.11 -0.11)">
       <use xlink:href="#DejaVuSans-30"/>
       <use xlink:href="#DejaVuSans-2e" transform="translate(63.623047 0)"/>
       <use xlink:href="#DejaVuSans-30" transform="translate(95.410156 0)"/>
      </g>
     </g>
    </g>
    <g id="ytick_2">
     <g id="line2d_15">
      <path d="M 50.587143 200.318128 
L 483.409286 200.318128 
" clip-path="url(#pd5e3a0ba26)" style="fill: none; stroke: #b0b0b0; stroke-opacity: 0.3; stroke-width: 0.8; stroke-linecap: square"/>
     </g>
     <g id="line2d_16">
      <g>
       <use xlink:href="#mde6cfbf446" x="50.587143" y="200.318128" style="stroke: #000000; stroke-width: 0.8"/>
      </g>
     </g>
     <g id="text_9">
      <!-- 0.1 -->
      <g transform="translate(26.093705 204.497269) scale(0.11 -0.11)">
       <use xlink:href="#DejaVuSans-30"/>
       <use xlink:href="#DejaVuSans-2e" transform="translate(63.623047 0)"/>
       <use xlink:href="#DejaVuSans-31" transform="translate(95.410156 0)"/>
      </g>
     </g>
    </g>
    <g id="ytick_3">
     <g id="line2d_17">
      <path d="M 50.587143 165.717572 
L 483.409286 165.717572 
" clip-path="url(#pd5e3a0ba26)" style="fill: none; stroke: #b0b0b0; stroke-opacity: 0.3; stroke-width: 0.8; stroke-linecap: square"/>
     </g>
     <g id="line2d_18">
      <g>
       <use xlink:href="#mde6cfbf446" x="50.587143" y="165.717572" style="stroke: #000000; stroke-width: 0.8"/>
      </g>
     </g>
     <g id="text_10">
      <!-- 0.2 -->
      <g transform="translate(26.093705 169.896713) scale(0.11 -0.11)">
       <use xlink:href="#DejaVuSans-30"/>
       <use xlink:href="#DejaVuSans-2e" transform="translate(63.623047 0)"/>
       <use xlink:href="#DejaVuSans-32" transform="translate(95.410156 0)"/>
      </g>
     </g>
    </g>
    <g id="ytick_4">
     <g id="line2d_19">
      <path d="M 50.587143 131.117016 
L 483.409286 131.117016 
" clip-path="url(#pd5e3a0ba26)" style="fill: none; stroke: #b0b0b0; stroke-opacity: 0.3; stroke-width: 0.8; stroke-linecap: square"/>
     </g>
     <g id="line2d_20">
      <g>
       <use xlink:href="#mde6cfbf446" x="50.587143" y="131.117016" style="stroke: #000000; stroke-width: 0.8"/>
      </g>
     </g>
     <g id="text_11">
      <!-- 0.3 -->
      <g transform="translate(26.093705 135.296157) scale(0.11 -0.11)">
       <use xlink:href="#DejaVuSans-30"/>
       <use xlink:href="#DejaVuSans-2e" transform="translate(63.623047 0)"/>
       <use xlink:href="#DejaVuSans-33" transform="translate(95.410156 0)"/>
      </g>
     </g>
    </g>
    <g id="ytick_5">
     <g id="line2d_21">
      <path d="M 50.587143 96.51646 
L 483.409286 96.51646 
" clip-path="url(#pd5e3a0ba26)" style="fill: none; stroke: #b0b0b0; stroke-opacity: 0.3; stroke-width: 0.8; stroke-linecap: square"/>
     </g>
     <g id="line2d_22">
      <g>
       <use xlink:href="#mde6cfbf446" x="50.587143" y="96.51646" style="stroke: #000000; stroke-width: 0.8"/>
      </g>
     </g>
     <g id="text_12">
      <!-- 0.4 -->
      <g transform="translate(26.093705 100.695601) scale(0.11 -0.11)">
       <use xlink:href="#DejaVuSans-30"/>
       <use xlink:href="#DejaVuSans-2e" transform="translate(63.623047 0)"/>
       <use xlink:href="#DejaVuSans-34" transform="translate(95.410156 0)"/>
      </g>
     </g>
    </g>
    <g id="ytick_6">
     <g id="line2d_23">
      <path d="M 50.587143 61.915904 
L 483.409286 61.915904 
" clip-path="url(#pd5e3a0ba26)" style="fill: none; stroke: #b0b0b0; stroke-opacity: 0.3; stroke-width: 0.8; stroke-linecap: square"/>
     </g>
     <g id="line2d_24">
      <g>
       <use xlink:href="#mde6cfbf446" x="50.587143" y="61.915904" style="stroke: #000000; stroke-width: 0.8"/>
      </g>
     </g>
     <g id="text_13">
      <!-- 0.5 -->
      <g transform="translate(26.093705 66.095045) scale(0.11 -0.11)">
       <use xlink:href="#DejaVuSans-30"/>
       <use xlink:href="#DejaVuSans-2e" transform="translate(63.623047 0)"/>
       <use xlink:href="#DejaVuSans-35" transform="translate(95.410156 0)"/>
      </g>
     </g>
    </g>
    <g id="text_14">
     <!-- Lock-in amplitude R (a.u.) -->
     <g transform="translate(19.806049 207.399955) rotate(-90) scale(0.11 -0.11)">
      <defs>
       <path id="DejaVuSans-4c" d="M 628 4666 
L 1259 4666 
L 1259 531 
L 3531 531 
L 3531 0 
L 628 0 
L 628 4666 
z
" transform="scale(0.015625)"/>
       <path id="DejaVuSans-6f" d="M 1959 3097 
Q 1497 3097 1228 2736 
Q 959 2375 959 1747 
Q 959 1119 1226 758 
Q 1494 397 1959 397 
Q 2419 397 2687 759 
Q 2956 1122 2956 1747 
Q 2956 2369 2687 2733 
Q 2419 3097 1959 3097 
z
M 1959 3584 
Q 2709 3584 3137 3096 
Q 3566 2609 3566 1747 
Q 3566 888 3137 398 
Q 2709 -91 1959 -91 
Q 1206 -91 779 398 
Q 353 888 353 1747 
Q 353 2609 779 3096 
Q 1206 3584 1959 3584 
z
" transform="scale(0.015625)"/>
       <path id="DejaVuSans-63" d="M 3122 3366 
L 3122 2828 
Q 2878 2963 2633 3030 
Q 2388 3097 2138 3097 
Q 1578 3097 1268 2742 
Q 959 2388 959 1747 
Q 959 1106 1268 751 
Q 1578 397 2138 397 
Q 2388 397 2633 464 
Q 2878 531 3122 666 
L 3122 134 
Q 2881 22 2623 -34 
Q 2366 -91 2075 -91 
Q 1284 -91 818 406 
Q 353 903 353 1747 
Q 353 2603 823 3093 
Q 1294 3584 2113 3584 
Q 2378 3584 2631 3529 
Q 2884 3475 3122 3366 
z
" transform="scale(0.015625)"/>
       <path id="DejaVuSans-6b" d="M 581 4863 
L 1159 4863 
L 1159 1991 
L 2875 3500 
L 3609 3500 
L 1753 1863 
L 3688 0 
L 2938 0 
L 1159 1709 
L 1159 0 
L 581 0 
L 581 4863 
z
" transform="scale(0.015625)"/>
       <path id="DejaVuSans-2d" d="M 313 2009 
L 1997 2009 
L 1997 1497 
L 313 1497 
L 313 2009 
z
" transform="scale(0.015625)"/>
       <path id="DejaVuSans-6e" d="M 3513 2113 
L 3513 0 
L 2938 0 
L 2938 2094 
Q 2938 2591 2744 2837 
Q 2550 3084 2163 3084 
Q 1697 3084 1428 2787 
Q 1159 2491 1159 1978 
L 1159 0 
L 581 0 
L 581 3500 
L 1159 3500 
L 1159 2956 
Q 1366 3272 1645 3428 
Q 1925 3584 2291 3584 
Q 2894 3584 3203 3211 
Q 3513 2838 3513 2113 
z
" transform="scale(0.015625)"/>
       <path id="DejaVuSans-61" d="M 2194 1759 
Q 1497 1759 1228 1600 
Q 959 1441 959 1056 
Q 959 750 1161 570 
Q 1363 391 1709 391 
Q 2188 391 2477 730 
Q 2766 1069 2766 1631 
L 2766 1759 
L 2194 1759 
z
M 3341 1997 
L 3341 0 
L 2766 0 
L 2766 531 
Q 2569 213 2275 61 
Q 1981 -91 1556 -91 
Q 1019 -91 701 211 
Q 384 513 384 1019 
Q 384 1609 779 1909 
Q 1175 2209 1959 2209 
L 2766 2209 
L 2766 2266 
Q 2766 2663 2505 2880 
Q 2244 3097 1772 3097 
Q 1472 3097 1187 3025 
Q 903 2953 641 2809 
L 641 3341 
Q 956 3463 1253 3523 
Q 1550 3584 1831 3584 
Q 2591 3584 2966 3190 
Q 3341 2797 3341 1997 
z
" transform="scale(0.015625)"/>
       <path id="DejaVuSans-70" d="M 1159 525 
L 1159 -1331 
L 581 -1331 
L 581 3500 
L 1159 3500 
L 1159 2969 
Q 1341 3281 1617 3432 
Q 1894 3584 2278 3584 
Q 2916 3584 3314 3078 
Q 3713 2572 3713 1747 
Q 3713 922 3314 415 
Q 2916 -91 2278 -91 
Q 1894 -91 1617 61 
Q 1341 213 1159 525 
z
M 3116 1747 
Q 3116 2381 2855 2742 
Q 2594 3103 2138 3103 
Q 1681 3103 1420 2742 
Q 1159 2381 1159 1747 
Q 1159 1113 1420 752 
Q 1681 391 2138 391 
Q 2594 391 2855 752 
Q 3116 1113 3116 1747 
z
" transform="scale(0.015625)"/>
       <path id="DejaVuSans-6c" d="M 603 4863 
L 1178 4863 
L 1178 0 
L 603 0 
L 603 4863 
z
" transform="scale(0.015625)"/>
       <path id="DejaVuSans-75" d="M 544 1381 
L 544 3500 
L 1119 3500 
L 1119 1403 
Q 1119 906 1312 657 
Q 1506 409 1894 409 
Q 2359 409 2629 706 
Q 2900 1003 2900 1516 
L 2900 3500 
L 3475 3500 
L 3475 0 
L 2900 0 
L 2900 538 
Q 2691 219 2414 64 
Q 2138 -91 1772 -91 
Q 1169 -91 856 284 
Q 544 659 544 1381 
z
M 1991 3584 
L 1991 3584 
z
" transform="scale(0.015625)"/>
       <path id="DejaVuSans-64" d="M 2906 2969 
L 2906 4863 
L 3481 4863 
L 3481 0 
L 2906 0 
L 2906 525 
Q 2725 213 2448 61 
Q 2172 -91 1784 -91 
Q 1150 -91 751 415 
Q 353 922 353 1747 
Q 353 2572 751 3078 
Q 1150 3584 1784 3584 
Q 2172 3584 2448 3432 
Q 2725 3281 2906 2969 
z
M 947 1747 
Q 947 1113 1208 752 
Q 1469 391 1925 391 
Q 2381 391 2643 752 
Q 2906 1113 2906 1747 
Q 2906 2381 2643 2742 
Q 2381 3103 1925 3103 
Q 1469 3103 1208 2742 
Q 947 2381 947 1747 
z
" transform="scale(0.015625)"/>
       <path id="DejaVuSans-52" d="M 2841 2188 
Q 3044 2119 3236 1894 
Q 3428 1669 3622 1275 
L 4263 0 
L 3584 0 
L 2988 1197 
Q 2756 1666 2539 1819 
Q 2322 1972 1947 1972 
L 1259 1972 
L 1259 0 
L 628 0 
L 628 4666 
L 2053 4666 
Q 2853 4666 3247 4331 
Q 3641 3997 3641 3322 
Q 3641 2881 3436 2590 
Q 3231 2300 2841 2188 
z
M 1259 4147 
L 1259 2491 
L 2053 2491 
Q 2509 2491 2742 2702 
Q 2975 2913 2975 3322 
Q 2975 3731 2742 3939 
Q 2509 4147 2053 4147 
L 1259 4147 
z
" transform="scale(0.015625)"/>
      </defs>
      <use xlink:href="#DejaVuSans-4c"/>
      <use xlink:href="#DejaVuSans-6f" transform="translate(53.962891 0)"/>
      <use xlink:href="#DejaVuSans-63" transform="translate(115.144531 0)"/>
      <use xlink:href="#DejaVuSans-6b" transform="translate(170.125 0)"/>
      <use xlink:href="#DejaVuSans-2d" transform="translate(228.035156 0)"/>
      <use xlink:href="#DejaVuSans-69" transform="translate(264.119141 0)"/>
      <use xlink:href="#DejaVuSans-6e" transform="translate(291.902344 0)"/>
      <use xlink:href="#DejaVuSans-20" transform="translate(355.28125 0)"/>
      <use xlink:href="#DejaVuSans-61" transform="translate(387.068359 0)"/>
      <use xlink:href="#DejaVuSans-6d" transform="translate(448.347656 0)"/>
      <use xlink:href="#DejaVuSans-70" transform="translate(545.759766 0)"/>
      <use xlink:href="#DejaVuSans-6c" transform="translate(609.236328 0)"/>
      <use xlink:href="#DejaVuSans-69" transform="translate(637.019531 0)"/>
      <use xlink:href="#DejaVuSans-74" transform="translate(664.802734 0)"/>
      <use xlink:href="#DejaVuSans-75" transform="translate(704.011719 0)"/>
      <use xlink:href="#DejaVuSans-64" transform="translate(767.390625 0)"/>
      <use xlink:href="#DejaVuSans-65" transform="translate(830.867188 0)"/>
      <use xlink:href="#DejaVuSans-20" transform="translate(892.390625 0)"/>
      <use xlink:href="#DejaVuSans-52" transform="translate(924.177734 0)"/>
      <use xlink:href="#DejaVuSans-20" transform="translate(993.660156 0)"/>
      <use xlink:href="#DejaVuSans-28" transform="translate(1025.447266 0)"/>
      <use xlink:href="#DejaVuSans-61" transform="translate(1064.460938 0)"/>
      <use xlink:href="#DejaVuSans-2e" transform="translate(1125.740234 0)"/>
      <use xlink:href="#DejaVuSans-75" transform="translate(1157.527344 0)"/>
      <use xlink:href="#DejaVuSans-2e" transform="translate(1220.90625 0)"/>
      <use xlink:href="#DejaVuSans-29" transform="translate(1252.693359 0)"/>
     </g>
    </g>
   </g>
   <g id="line2d_25">
    <path d="M 50.587143 174.29451 
L 51.452787 176.516241 
L 53.616898 183.831745 
L 54.04972 184.666497 
L 54.482542 185.190233 
L 55.348186 185.701197 
L 56.646653 186.284696 
L 57.079475 186.261445 
L 57.512297 185.748197 
L 57.945119 184.402381 
L 58.377941 181.997744 
L 58.810764 178.409548 
L 59.676408 168.311585 
L 62.706163 126.782917 
L 63.571807 118.312555 
L 64.437451 112.829136 
L 64.870274 111.249974 
L 65.303096 110.340308 
L 65.735918 109.961502 
L 66.16874 109.925264 
L 67.467206 110.360241 
L 67.900029 110.538695 
L 68.332851 110.864243 
L 68.765673 111.411488 
L 69.198495 112.25138 
L 70.064139 114.845419 
L 71.795428 120.813511 
L 72.22825 121.843556 
L 72.661072 122.584331 
L 73.093894 122.86814 
L 73.959539 122.967211 
L 74.825183 122.762319 
L 75.258005 122.193914 
L 75.690827 121.045156 
L 76.123649 118.894687 
L 76.556471 115.704845 
L 77.422116 105.923629 
L 78.720582 86.250494 
L 80.451871 60.095379 
L 81.317515 49.111142 
L 82.183159 41.226437 
L 82.615981 39.090708 
L 83.048804 38.381467 
L 83.481626 39.194922 
L 83.914448 41.43084 
L 84.34727 44.891186 
L 85.212914 54.668515 
L 86.511381 73.134492 
L 88.675491 106.246108 
L 89.541136 115.914367 
L 89.973958 119.127584 
L 90.40678 121.229773 
L 90.839602 122.366414 
L 91.272424 122.888858 
L 92.138069 122.989304 
L 93.003713 122.89365 
L 93.436535 122.568689 
L 93.869357 121.734831 
L 94.302179 120.159192 
L 94.735001 117.63198 
L 95.167824 113.928882 
L 96.033468 103.431478 
L 99.928867 47.403819 
L 100.361689 43.394167 
L 100.794511 40.523288 
L 101.227334 39.009664 
L 101.660156 38.952707 
L 102.092978 40.387624 
L 102.5258 43.180726 
L 103.391444 51.982039 
L 104.689911 69.802653 
L 107.286844 109.014524 
L 108.152488 117.737403 
L 108.58531 120.342696 
L 109.018132 121.98632 
L 109.450954 122.829976 
L 109.883776 123.177463 
L 110.749421 123.338658 
L 111.182243 123.32747 
L 111.615065 123.134722 
L 112.047887 122.621045 
L 112.480709 121.50135 
L 112.913531 119.493164 
L 113.346354 116.388134 
L 114.211998 106.885645 
L 115.510464 87.442493 
L 117.241753 61.165525 
L 118.107397 50.030722 
L 118.973041 41.988917 
L 119.405864 39.668885 
L 119.838686 38.800295 
L 120.271508 39.424571 
L 120.70433 41.522299 
L 121.137152 44.894023 
L 122.002796 54.44536 
L 123.301263 72.728452 
L 125.898196 111.430352 
L 126.331018 115.907479 
L 126.76384 119.123276 
L 127.196662 121.273898 
L 127.629484 122.492501 
L 128.062306 123.048233 
L 128.495129 123.263777 
L 129.360773 123.317696 
L 129.793595 123.259852 
L 130.226417 122.961965 
L 130.659239 122.25242 
L 131.092061 120.752475 
L 131.524884 118.347538 
L 131.957706 114.754581 
L 132.82335 104.224519 
L 136.718749 47.973076 
L 137.151571 43.828663 
L 137.584394 40.856501 
L 138.017216 39.147329 
L 138.450038 38.944218 
L 138.88286 40.235136 
L 139.315682 42.893654 
L 140.181326 51.45888 
L 141.479793 69.109764 
L 144.509548 113.427545 
L 144.94237 117.311285 
L 145.375192 120.06503 
L 145.808014 121.773984 
L 146.240836 122.640058 
L 146.673659 122.997928 
L 147.539303 123.104202 
L 148.404947 122.978296 
L 148.837769 122.502072 
L 149.270591 121.512563 
L 149.703414 119.632845 
L 150.136236 116.671764 
L 150.569058 112.55358 
L 151.434702 101.231727 
L 154.897279 50.093601 
L 155.762924 41.861027 
L 156.195746 39.414849 
L 156.628568 38.370329 
L 157.06139 38.858017 
L 157.494212 40.781377 
L 157.927034 43.979961 
L 158.792679 53.380687 
L 160.091145 71.654083 
L 162.688078 110.436768 
L 163.553722 118.370962 
L 163.986544 120.605889 
L 164.419366 121.913197 
L 164.852189 122.558808 
L 165.285011 122.797634 
L 166.150655 122.817464 
L 166.583477 122.725656 
L 167.016299 122.48028 
L 167.449121 121.804929 
L 167.881944 120.422151 
L 168.314766 118.040226 
L 168.747588 114.574929 
L 169.613232 104.324241 
L 171.344521 77.690961 
L 173.075809 52.905226 
L 173.941454 43.696208 
L 174.374276 40.592453 
L 174.807098 38.755651 
L 175.23992 38.430604 
L 175.672742 39.612579 
L 176.105564 42.216339 
L 176.971209 50.62216 
L 178.269675 68.15527 
L 181.29943 112.757407 
L 181.732252 116.779764 
L 182.165074 119.597564 
L 182.597896 121.425528 
L 183.030719 122.40489 
L 183.463541 122.818683 
L 184.329185 122.969009 
L 185.194829 122.811801 
L 185.627651 122.37718 
L 186.060474 121.410886 
L 186.493296 119.6585 
L 186.926118 116.778534 
L 187.791762 107.78211 
L 189.090229 88.538639 
L 190.821517 62.061847 
L 191.687161 50.79947 
L 192.552806 42.332269 
L 192.985628 39.781324 
L 193.41845 38.620274 
L 193.851272 38.941671 
L 194.284094 40.736294 
L 194.716916 43.88043 
L 195.582561 53.125418 
L 196.881027 71.307799 
L 199.47796 110.385299 
L 200.343604 118.630789 
L 200.776426 121.0453 
L 201.209249 122.398118 
L 201.642071 123.075079 
L 202.074893 123.334575 
L 202.940537 123.411093 
L 203.373359 123.337693 
L 203.806181 123.097203 
L 204.239004 122.506794 
L 204.671826 121.204009 
L 205.104648 118.9637 
L 205.53747 115.63576 
L 206.403114 105.600215 
L 208.134403 78.938011 
L 209.432869 59.61422 
L 210.298514 48.910864 
L 211.164158 41.375055 
L 211.59698 39.444654 
L 212.029802 38.952861 
L 212.462624 39.959297 
L 212.895446 42.377082 
L 213.328269 46.006242 
L 214.193913 55.976923 
L 215.492379 74.484773 
L 217.65649 107.424532 
L 218.522134 116.68674 
L 218.954956 119.627275 
L 219.387779 121.529155 
L 219.820601 122.543263 
L 220.253423 123.043937 
L 221.119067 123.21204 
L 221.984711 123.088555 
L 222.417534 122.706273 
L 222.850356 121.802244 
L 223.283178 120.097353 
L 223.716 117.367455 
L 224.581644 108.438228 
L 225.880111 89.214303 
L 227.611399 62.777095 
L 228.477044 51.305065 
L 229.342688 42.667701 
L 229.77551 39.954117 
L 230.208332 38.606669 
L 230.641154 38.756298 
L 231.073976 40.370267 
L 231.506799 43.349146 
L 232.372443 52.37027 
L 233.670909 70.380642 
L 236.267842 109.728943 
L 237.133486 118.016279 
L 237.566309 120.539876 
L 237.999131 122.035197 
L 238.431953 122.803258 
L 238.864775 123.093018 
L 239.730419 123.122764 
L 240.163241 123.097643 
L 240.596064 122.893034 
L 241.028886 122.366032 
L 241.461708 121.147042 
L 241.89453 118.995797 
L 242.327352 115.75219 
L 243.192996 105.937808 
L 244.491463 86.149029 
L 246.222751 59.891387 
L 247.088396 48.926969 
L 247.95404 41.162449 
L 248.386862 39.058101 
L 248.819684 38.386487 
L 249.252506 39.230443 
L 249.685329 41.524959 
L 250.118151 45.015071 
L 250.983795 54.82611 
L 252.282261 73.367977 
L 254.446372 106.536268 
L 255.312016 116.1685 
L 255.744839 119.249458 
L 256.177661 121.27172 
L 256.610483 122.405554 
L 257.043305 122.896697 
L 257.908949 123.116499 
L 258.774594 123.000886 
L 259.207416 122.658396 
L 259.640238 121.836722 
L 260.07306 120.226342 
L 260.505882 117.671229 
L 260.938704 113.975295 
L 261.804349 103.358226 
L 265.699748 47.225349 
L 266.13257 43.243172 
L 266.565392 40.397225 
L 266.998214 38.916815 
L 267.431036 38.892745 
L 267.863859 40.371036 
L 268.296681 43.225273 
L 269.162325 52.089493 
L 270.460791 69.909437 
L 273.057724 109.285287 
L 273.923369 117.955489 
L 274.356191 120.57348 
L 274.789013 122.20084 
L 275.221835 123.036621 
L 275.654657 123.324933 
L 276.520301 123.458642 
L 276.953124 123.440993 
L 277.385946 123.255301 
L 277.818768 122.68573 
L 278.25159 121.507388 
L 278.684412 119.421666 
L 279.117234 116.264757 
L 279.982879 106.755123 
L 281.281345 87.091551 
L 283.012634 60.892038 
L 283.878278 49.745159 
L 284.743922 41.72591 
L 285.176744 39.497393 
L 285.609566 38.6764 
L 286.042389 39.35919 
L 286.475211 41.488044 
L 286.908033 44.899208 
L 287.773677 54.53853 
L 289.072144 72.982995 
L 291.236254 106.202171 
L 292.101899 115.978328 
L 292.534721 119.257692 
L 292.967543 121.400034 
L 293.400365 122.580742 
L 293.833187 123.158864 
L 294.266009 123.357555 
L 295.131654 123.439613 
L 295.564476 123.321719 
L 295.997298 122.991781 
L 296.43012 122.220443 
L 296.862942 120.710648 
L 297.295764 118.229824 
L 297.728586 114.492656 
L 298.594231 103.950442 
L 302.48963 47.686621 
L 302.922452 43.628297 
L 303.355274 40.685343 
L 303.788096 39.02485 
L 304.220919 38.900811 
L 304.653741 40.260068 
L 305.086563 42.970348 
L 305.952207 51.63301 
L 307.250674 69.364589 
L 309.847606 108.600318 
L 310.713251 117.569669 
L 311.146073 120.33102 
L 311.578895 122.059773 
L 312.011717 122.949717 
L 312.444539 123.335144 
L 313.310184 123.453845 
L 313.743006 123.408559 
L 314.175828 123.205321 
L 314.60865 122.671701 
L 315.041472 121.623157 
L 315.474294 119.742898 
L 315.907116 116.773939 
L 316.772761 107.398472 
L 318.071227 87.783904 
L 319.802516 61.301561 
L 320.66816 50.114651 
L 321.533804 41.8849 
L 321.966626 39.513571 
L 322.399449 38.514308 
L 322.832271 39.03728 
L 323.265093 41.000093 
L 323.697915 44.286249 
L 324.563559 53.817213 
L 325.862026 72.076138 
L 328.458959 110.957367 
L 328.891781 115.440086 
L 329.324603 118.739973 
L 329.757425 120.988413 
L 330.190247 122.257333 
L 330.623069 122.881811 
L 331.055891 123.083057 
L 331.921536 123.138147 
L 332.354358 123.054313 
L 332.78718 122.796863 
L 333.220002 122.121877 
L 333.652824 120.70378 
L 334.085646 118.336287 
L 334.518469 114.832625 
L 335.384113 104.556843 
L 337.115401 77.719714 
L 338.413868 58.683998 
L 339.279512 48.070571 
L 340.145156 40.841872 
L 340.577979 39.090219 
L 341.010801 38.819397 
L 341.443623 40.019632 
L 341.876445 42.58931 
L 342.742089 51.069243 
L 344.040556 68.610724 
L 347.070311 113.079922 
L 347.503133 117.063328 
L 347.935955 119.882451 
L 348.368777 121.707866 
L 348.801599 122.662765 
L 349.234421 123.04774 
L 350.100066 123.19531 
L 350.532888 123.161915 
L 350.96571 123.002225 
L 351.398532 122.532691 
L 351.831354 121.601413 
L 352.264176 119.813489 
L 352.696999 116.908737 
L 353.129821 112.917598 
L 353.995465 101.735806 
L 357.458042 50.640638 
L 358.323686 42.272332 
L 358.756509 39.763669 
L 359.189331 38.638366 
L 359.622153 39.018158 
L 360.054975 40.861941 
L 360.487797 44.05985 
L 361.353441 53.379185 
L 362.651908 71.675345 
L 365.248841 110.71542 
L 365.681663 115.382627 
L 366.114485 118.813814 
L 366.547307 121.136516 
L 366.980129 122.515268 
L 367.412951 123.213879 
L 367.845774 123.455672 
L 368.711418 123.518373 
L 369.14424 123.420182 
L 369.577062 123.146515 
L 370.009884 122.492525 
L 370.442706 121.179159 
L 370.875529 118.877828 
L 371.308351 115.453532 
L 372.173995 105.398756 
L 373.472461 85.574355 
L 375.20375 59.50834 
L 376.069394 48.690025 
L 376.502216 44.401227 
L 376.935039 41.222974 
L 377.367861 39.281923 
L 377.800683 38.845056 
L 378.233505 39.875989 
L 378.666327 42.329268 
L 379.099149 45.995335 
L 379.964794 56.019343 
L 381.26326 74.6578 
L 383.427371 107.425453 
L 384.293015 116.700145 
L 384.725837 119.663999 
L 385.158659 121.471913 
L 385.591481 122.482843 
L 386.024304 122.907999 
L 386.889948 123.126009 
L 387.32277 123.131737 
L 387.755592 123.014843 
L 388.188414 122.652269 
L 388.621236 121.777781 
L 389.054059 120.062404 
L 389.486881 117.279135 
L 389.919703 113.40391 
L 390.785347 102.597145 
L 394.247924 51.367389 
L 395.113569 42.680916 
L 395.546391 40.004056 
L 395.979213 38.714343 
L 396.412035 38.909614 
L 396.844857 40.567869 
L 397.277679 43.606159 
L 398.143324 52.635617 
L 399.44179 70.63689 
L 402.038723 109.47693 
L 402.904367 117.753787 
L 403.337189 120.213155 
L 403.770011 121.70972 
L 404.202834 122.486676 
L 404.635656 122.796864 
L 405.5013 122.894761 
L 405.934122 122.824854 
L 406.366944 122.638155 
L 406.799766 122.085148 
L 407.232589 120.895272 
L 407.665411 118.685359 
L 408.098233 115.407791 
L 408.963877 105.531888 
L 410.262344 85.769322 
L 411.993632 59.510255 
L 412.859276 48.62988 
L 413.724921 40.904058 
L 414.157743 38.823532 
L 414.590565 38.22313 
L 415.023387 39.082371 
L 415.456209 41.36858 
L 415.889031 44.915845 
L 416.754676 54.746902 
L 418.053142 73.291632 
L 420.650075 111.634483 
L 421.082897 115.889458 
L 421.515719 119.004974 
L 421.948541 121.025201 
L 422.381364 122.0966 
L 422.814186 122.5641 
L 423.247008 122.776335 
L 424.112652 122.78747 
L 424.545474 122.670254 
L 424.978296 122.352274 
L 425.411119 121.525544 
L 425.843941 119.911525 
L 426.276763 117.286837 
L 426.709585 113.56175 
L 427.575229 102.890746 
L 431.037806 51.817346 
L 431.903451 42.915332 
L 432.336273 40.107 
L 432.769095 38.678676 
L 433.201917 38.675528 
L 433.634739 40.186697 
L 434.067561 43.018958 
L 434.933206 51.903601 
L 436.231672 69.763252 
L 439.261427 113.992972 
L 439.694249 117.725472 
L 440.127071 120.275795 
L 440.559894 121.801967 
L 440.992716 122.634379 
L 441.425538 122.950035 
L 442.291182 122.990695 
L 442.724004 122.933059 
L 443.156826 122.758339 
L 443.589649 122.301571 
L 444.022471 121.1863 
L 444.455293 119.127617 
L 444.888115 116.046076 
L 445.753759 106.496212 
L 447.052226 86.9851 
L 448.783514 60.629403 
L 449.649159 49.508463 
L 450.514803 41.478692 
L 450.947625 39.22271 
L 451.380447 38.454344 
L 451.813269 39.16698 
L 452.246091 41.307945 
L 452.678914 44.740283 
L 453.544558 54.431194 
L 454.843024 72.870773 
L 457.007135 106.021762 
L 457.872779 115.851745 
L 458.305601 119.075061 
L 458.738424 121.221793 
L 459.171246 122.419988 
L 459.604068 122.97457 
L 460.03689 123.195175 
L 460.902534 123.251809 
L 461.335356 123.207911 
L 461.768179 122.953629 
L 462.201001 122.191845 
L 462.633823 120.649956 
L 463.066645 118.147179 
L 463.499467 114.498947 
L 464.365111 103.9483 
L 468.260511 47.544917 
L 468.693333 43.470182 
L 469.126155 40.510769 
L 469.558977 38.920881 
L 469.991799 38.767398 
L 470.424621 40.13632 
L 470.857444 42.878662 
L 471.723088 51.551399 
L 473.021554 69.232116 
L 475.618487 108.762328 
L 476.484131 117.601372 
L 476.916954 120.328979 
L 477.349776 121.98121 
L 477.782598 122.844117 
L 478.21542 123.175965 
L 479.081064 123.293065 
L 479.946709 123.163858 
L 480.379531 122.680657 
L 480.812353 121.64302 
L 481.245175 119.671807 
L 481.677997 116.614891 
L 482.543641 107.115113 
L 483.842108 87.729339 
L 483.842108 87.729339 
" clip-path="url(#pd5e3a0ba26)" style="fill: none; stroke: #1f77b4; stroke-width: 1.5; stroke-linecap: square"/>
   </g>
   <g id="line2d_26">
    <path d="M 50.587143 223.495665 
L 51.885609 219.58277 
L 53.184076 216.498789 
L 54.04972 214.917543 
L 54.915364 213.806215 
L 55.781009 213.137056 
L 56.213831 212.980296 
L 56.646653 212.943292 
L 57.079475 213.025886 
L 57.945119 213.551643 
L 58.810764 214.550218 
L 59.676408 215.961428 
L 60.542052 217.786414 
L 61.840519 221.229112 
L 63.138985 225.357986 
L 65.735918 234.712987 
L 66.601562 231.745855 
L 68.765673 223.982457 
L 70.064139 220.024775 
L 71.362606 216.841664 
L 72.22825 215.197842 
L 80.019049 215.525225 
L 83.048804 215.190455 
L 84.34727 214.992541 
L 89.108314 214.989675 
L 91.705246 215.137247 
L 94.735001 215.403975 
L 97.331934 215.421106 
L 100.361689 215.301205 
L 102.5258 215.116284 
L 106.854021 215.029195 
L 110.316599 215.185069 
L 112.480709 215.26824 
L 115.943286 215.426692 
L 124.599729 214.887665 
L 128.062306 215.278936 
L 133.688994 215.930909 
L 134.987461 215.843332 
L 137.584394 215.333845 
L 140.614149 214.662291 
L 142.778259 214.552856 
L 149.270591 215.611867 
L 151.434702 215.761846 
L 153.165991 215.646176 
L 155.330101 215.350795 
L 157.927034 215.062827 
L 159.658323 215.192311 
L 161.822434 215.238096 
L 164.419366 215.152156 
L 166.583477 214.949266 
L 168.747588 214.798539 
L 174.374276 215.534181 
L 177.836853 215.935303 
L 179.568141 215.838126 
L 181.732252 215.429205 
L 185.194829 214.620844 
L 187.791762 214.486318 
L 188.657406 214.597821 
L 190.388695 215.010468 
L 192.552806 215.584853 
L 194.716916 215.887122 
L 196.448205 215.924459 
L 198.612316 215.514098 
L 200.343604 215.130787 
L 203.373359 214.830427 
L 204.671826 214.855253 
L 206.403114 215.026632 
L 209.432869 215.291343 
L 210.731336 215.335722 
L 213.328269 215.363815 
L 217.223668 215.222601 
L 218.089312 215.139009 
L 219.820601 215.022082 
L 221.551889 214.993912 
L 223.716 215.142609 
L 224.581644 215.139721 
L 225.447289 215.16434 
L 227.178577 215.355619 
L 228.909866 215.400923 
L 234.969376 215.088856 
L 239.730419 215.216171 
L 241.89453 215.378393 
L 244.058641 215.326294 
L 248.386862 215.176082 
L 258.774594 215.245462 
L 260.938704 215.448789 
L 266.13257 215.079497 
L 267.431036 214.973948 
L 271.326436 215.234155 
L 273.490546 215.419788 
L 274.789013 215.449188 
L 282.146989 215.070799 
L 285.176744 214.963822 
L 292.101899 215.366366 
L 300.325519 215.347617 
L 308.54914 215.162454 
L 315.474294 215.399637 
L 321.966626 215.016132 
L 327.160492 215.23232 
L 328.458959 215.194431 
L 330.190247 215.234667 
L 336.682579 215.198025 
L 341.443623 215.395911 
L 345.339022 215.365095 
L 346.204666 215.421748 
L 347.935955 215.460322 
L 349.234421 215.399329 
L 351.831354 215.200387 
L 353.562643 215.156566 
L 355.293931 214.969955 
L 366.980129 215.423478 
L 370.442706 215.292455 
L 371.308351 215.219927 
L 372.606817 215.007629 
L 373.905284 214.879493 
L 375.20375 214.845224 
L 377.800683 214.905217 
L 384.293015 215.692555 
L 385.591481 215.740822 
L 388.621236 215.223046 
L 389.919703 215.002647 
L 392.083814 214.788591 
L 395.979213 214.976697 
L 398.143324 215.451079 
L 399.874612 215.749774 
L 401.173079 215.8351 
L 405.068478 215.663661 
L 407.232589 215.243138 
L 408.963877 214.809582 
L 411.56081 214.512873 
L 412.859276 214.627044 
L 415.023387 215.183867 
L 416.321854 215.44451 
L 418.053142 215.727292 
L 420.217253 215.894516 
L 421.948541 215.797532 
L 424.112652 215.39027 
L 427.575229 214.804307 
L 428.873696 214.635729 
L 433.634739 215.018531 
L 437.097316 215.500062 
L 440.559894 215.656139 
L 445.320937 215.280276 
L 446.186581 215.099756 
L 447.485048 215.035921 
L 450.081981 214.941416 
L 452.678914 214.968576 
L 454.410202 214.961813 
L 456.141491 214.936937 
L 458.305601 215.069741 
L 459.604068 215.215134 
L 461.335356 215.37525 
L 466.0964 215.568835 
L 469.991799 215.100656 
L 471.290266 214.981544 
L 472.588732 214.969217 
L 477.782598 215.36666 
L 479.946709 215.656956 
L 481.245175 215.662624 
L 483.842108 215.418946 
L 483.842108 215.418946 
" clip-path="url(#pd5e3a0ba26)" style="fill: none; stroke: #ff7f0e; stroke-opacity: 0.8; stroke-width: 1.5; stroke-linecap: square"/>
   </g>
   <g id="patch_3">
    <path d="M 50.587143 244.548571 
L 50.587143 28.165714 
" style="fill: none; stroke: #000000; stroke-width: 0.8; stroke-linejoin: miter; stroke-linecap: square"/>
   </g>
   <g id="patch_4">
    <path d="M 50.587143 244.548571 
L 483.409286 244.548571 
" style="fill: none; stroke: #000000; stroke-width: 0.8; stroke-linejoin: miter; stroke-linecap: square"/>
   </g>
   <g id="text_15">
    <!-- Lock-in amplitude at drive frequency -->
    <g transform="translate(145.370527 22.165714) scale(0.132 -0.132)">
     <defs>
      <path id="DejaVuSans-72" d="M 2631 2963 
Q 2534 3019 2420 3045 
Q 2306 3072 2169 3072 
Q 1681 3072 1420 2755 
Q 1159 2438 1159 1844 
L 1159 0 
L 581 0 
L 581 3500 
L 1159 3500 
L 1159 2956 
Q 1341 3275 1631 3429 
Q 1922 3584 2338 3584 
Q 2397 3584 2469 3576 
Q 2541 3569 2628 3553 
L 2631 2963 
z
" transform="scale(0.015625)"/>
      <path id="DejaVuSans-76" d="M 191 3500 
L 800 3500 
L 1894 563 
L 2988 3500 
L 3597 3500 
L 2284 0 
L 1503 0 
L 191 3500 
z
" transform="scale(0.015625)"/>
      <path id="DejaVuSans-66" d="M 2375 4863 
L 2375 4384 
L 1825 4384 
Q 1516 4384 1395 4259 
Q 1275 4134 1275 3809 
L 1275 3500 
L 2222 3500 
L 2222 3053 
L 1275 3053 
L 1275 0 
L 697 0 
L 697 3053 
L 147 3053 
L 147 3500 
L 697 3500 
L 697 3744 
Q 697 4328 969 4595 
Q 1241 4863 1831 4863 
L 2375 4863 
z
" transform="scale(0.015625)"/>
      <path id="DejaVuSans-71" d="M 947 1747 
Q 947 1113 1208 752 
Q 1469 391 1925 391 
Q 2381 391 2643 752 
Q 2906 1113 2906 1747 
Q 2906 2381 2643 2742 
Q 2381 3103 1925 3103 
Q 1469 3103 1208 2742 
Q 947 2381 947 1747 
z
M 2906 525 
Q 2725 213 2448 61 
Q 2172 -91 1784 -91 
Q 1150 -91 751 415 
Q 353 922 353 1747 
Q 353 2572 751 3078 
Q 1150 3584 1784 3584 
Q 2172 3584 2448 3432 
Q 2725 3281 2906 2969 
L 2906 3500 
L 3481 3500 
L 3481 -1331 
L 2906 -1331 
L 2906 525 
z
" transform="scale(0.015625)"/>
      <path id="DejaVuSans-79" d="M 2059 -325 
Q 1816 -950 1584 -1140 
Q 1353 -1331 966 -1331 
L 506 -1331 
L 506 -850 
L 844 -850 
Q 1081 -850 1212 -737 
Q 1344 -625 1503 -206 
L 1606 56 
L 191 3500 
L 800 3500 
L 1894 763 
L 2988 3500 
L 3597 3500 
L 2059 -325 
z
" transform="scale(0.015625)"/>
     </defs>
     <use xlink:href="#DejaVuSans-4c"/>
     <use xlink:href="#DejaVuSans-6f" transform="translate(53.962891 0)"/>
     <use xlink:href="#DejaVuSans-63" transform="translate(115.144531 0)"/>
     <use xlink:href="#DejaVuSans-6b" transform="translate(170.125 0)"/>
     <use xlink:href="#DejaVuSans-2d" transform="translate(228.035156 0)"/>
     <use xlink:href="#DejaVuSans-69" transform="translate(264.119141 0)"/>
     <use xlink:href="#DejaVuSans-6e" transform="translate(291.902344 0)"/>
     <use xlink:href="#DejaVuSans-20" transform="translate(355.28125 0)"/>
     <use xlink:href="#DejaVuSans-61" transform="translate(387.068359 0)"/>
     <use xlink:href="#DejaVuSans-6d" transform="translate(448.347656 0)"/>
     <use xlink:href="#DejaVuSans-70" transform="translate(545.759766 0)"/>
     <use xlink:href="#DejaVuSans-6c" transform="translate(609.236328 0)"/>
     <use xlink:href="#DejaVuSans-69" transform="translate(637.019531 0)"/>
     <use xlink:href="#DejaVuSans-74" transform="translate(664.802734 0)"/>
     <use xlink:href="#DejaVuSans-75" transform="translate(704.011719 0)"/>
     <use xlink:href="#DejaVuSans-64" transform="translate(767.390625 0)"/>
     <use xlink:href="#DejaVuSans-65" transform="translate(830.867188 0)"/>
     <use xlink:href="#DejaVuSans-20" transform="translate(892.390625 0)"/>
     <use xlink:href="#DejaVuSans-61" transform="translate(924.177734 0)"/>
     <use xlink:href="#DejaVuSans-74" transform="translate(985.457031 0)"/>
     <use xlink:href="#DejaVuSans-20" transform="translate(1024.666016 0)"/>
     <use xlink:href="#DejaVuSans-64" transform="translate(1056.453125 0)"/>
     <use xlink:href="#DejaVuSans-72" transform="translate(1119.929688 0)"/>
     <use xlink:href="#DejaVuSans-69" transform="translate(1161.042969 0)"/>
     <use xlink:href="#DejaVuSans-76" transform="translate(1188.826172 0)"/>
     <use xlink:href="#DejaVuSans-65" transform="translate(1248.005859 0)"/>
     <use xlink:href="#DejaVuSans-20" transform="translate(1309.529297 0)"/>
     <use xlink:href="#DejaVuSans-66" transform="translate(1341.316406 0)"/>
     <use xlink:href="#DejaVuSans-72" transform="translate(1376.521484 0)"/>
     <use xlink:href="#DejaVuSans-65" transform="translate(1415.384766 0)"/>
     <use xlink:href="#DejaVuSans-71" transform="translate(1476.908203 0)"/>
     <use xlink:href="#DejaVuSans-75" transform="translate(1540.384766 0)"/>
     <use xlink:href="#DejaVuSans-65" transform="translate(1603.763672 0)"/>
     <use xlink:href="#DejaVuSans-6e" transform="translate(1665.287109 0)"/>
     <use xlink:href="#DejaVuSans-63" transform="translate(1728.666016 0)"/>
     <use xlink:href="#DejaVuSans-79" transform="translate(1783.646484 0)"/>
    </g>
   </g>
   <g id="legend_1">
    <g id="patch_5">
     <path d="M 226.879152 154.15308 
L 307.117277 154.15308 
Q 309.317277 154.15308 309.317277 151.95308 
L 309.317277 120.761205 
Q 309.317277 118.561205 307.117277 118.561205 
L 226.879152 118.561205 
Q 224.679152 118.561205 224.679152 120.761205 
L 224.679152 151.95308 
Q 224.679152 154.15308 226.879152 154.15308 
z
" style="fill: #ffffff; opacity: 0.8; stroke: #cccccc; stroke-linejoin: miter"/>
    </g>
    <g id="line2d_27">
     <path d="M 229.079152 127.469487 
L 240.079152 127.469487 
L 251.079152 127.469487 
" style="fill: none; stroke: #1f77b4; stroke-width: 1.5; stroke-linecap: square"/>
    </g>
    <g id="text_16">
     <!-- θ driven -->
     <g transform="translate(259.879152 131.319487) scale(0.11 -0.11)">
      <defs>
       <path id="DejaVuSans-3b8" d="M 2953 2219 
L 963 2219 
Q 1009 1284 1225 888 
Q 1494 400 1959 400 
Q 2428 400 2688 891 
Q 2916 1322 2953 2219 
z
M 2944 2750 
Q 2856 3638 2688 3950 
Q 2419 4444 1959 4444 
Q 1481 4444 1228 3956 
Q 1028 3563 969 2750 
L 2944 2750 
z
M 1959 4913 
Q 2709 4913 3138 4250 
Q 3566 3591 3566 2422 
Q 3566 1256 3138 594 
Q 2709 -72 1959 -72 
Q 1206 -72 781 594 
Q 353 1256 353 2422 
Q 353 3591 781 4250 
Q 1206 4913 1959 4913 
z
" transform="scale(0.015625)"/>
      </defs>
      <use xlink:href="#DejaVuSans-3b8"/>
      <use xlink:href="#DejaVuSans-20" transform="translate(61.181641 0)"/>
      <use xlink:href="#DejaVuSans-64" transform="translate(92.96875 0)"/>
      <use xlink:href="#DejaVuSans-72" transform="translate(156.445312 0)"/>
      <use xlink:href="#DejaVuSans-69" transform="translate(197.558594 0)"/>
      <use xlink:href="#DejaVuSans-76" transform="translate(225.341797 0)"/>
      <use xlink:href="#DejaVuSans-65" transform="translate(284.521484 0)"/>
      <use xlink:href="#DejaVuSans-6e" transform="translate(346.044922 0)"/>
     </g>
    </g>
    <g id="line2d_28">
     <path d="M 229.079152 143.615424 
L 240.079152 143.615424 
L 251.079152 143.615424 
" style="fill: none; stroke: #ff7f0e; stroke-opacity: 0.8; stroke-width: 1.5; stroke-linecap: square"/>
    </g>
    <g id="text_17">
     <!-- θ off -->
     <g transform="translate(259.879152 147.465424) scale(0.11 -0.11)">
      <use xlink:href="#DejaVuSans-3b8"/>
      <use xlink:href="#DejaVuSans-20" transform="translate(61.181641 0)"/>
      <use xlink:href="#DejaVuSans-6f" transform="translate(92.96875 0)"/>
      <use xlink:href="#DejaVuSans-66" transform="translate(154.150391 0)"/>
      <use xlink:href="#DejaVuSans-66" transform="translate(189.355469 0)"/>
     </g>
    </g>
   </g>
  </g>
 </g>
 <defs>
  <clipPath id="pd5e3a0ba26">
   <rect x="50.587143" y="28.165714" width="432.822143" height="216.382857"/>
  </clipPath>
 </defs>
</svg>
