<svg xmlns="http://www.w3.org/2000/svg" width="900" height="500" viewBox="0 0 900 500">
  <rect width="100%" height="100%" fill="white"/>
  <!-- Axes -->
  <line x1="100" y1="400" x2="800" y2="400" stroke="black" stroke-width="2"/>
  <line x1="100" y1="100" x2="100" y2="400" stroke="black" stroke-width="2"/>
  <text x="805" y="405" font-size="16" font-family="Arial">x</text>
  <text x="85" y="95"  font-size="16" font-family="Arial">y</text>
  <!-- A_theta gradient field (blue arrows up) -->
  <!-- draw several arrows along x -->
  <line x1="150" y1="220" x2="150" y2="160" stroke="#2b6cb0" stroke-width="3"/><line x1="210" y1="220" x2="210" y2="160" stroke="#2b6cb0" stroke-width="3"/><line x1="270" y1="220" x2="270" y2="160" stroke="#2b6cb0" stroke-width="3"/><line x1="330" y1="220" x2="330" y2="160" stroke="#2b6cb0" stroke-width="3"/><line x1="390" y1="220" x2="390" y2="160" stroke="#2b6cb0" stroke-width="3"/><line x1="450" y1="220" x2="450" y2="160" stroke="#2b6cb0" stroke-width="3"/><line x1="510" y1="220" x2="510" y2="160" stroke="#2b6cb0" stroke-width="3"/><line x1="570" y1="220" x2="570" y2="160" stroke="#2b6cb0" stroke-width="3"/><line x1="630" y1="220" x2="630" y2="160" stroke="#2b6cb0" stroke-width="3"/>
  <text x="120" y="150" font-size="16" font-family="Arial" fill="#2b6cb0">∂y Aθ &gt; 0</text>
  <!-- Wavepacket trajectory -->
  <path d="M 120 360 C 260 360 360 330 480 300 C 600 270 700 240 780 220" fill="none" stroke="#cc0000" stroke-width="4"/>
  <circle cx="120" cy="360" r="6" fill="#cc0000"/>
  <text x="130" y="375" font-size="16" font-family="Arial" fill="#cc0000">packet</text>
  <!-- Sideways arrow -->
  <line x1="500" y1="300" x2="500" y2="250" stroke="#cc0000" stroke-width="4" marker-end="url(#arrow)"/>
  <!-- θ-dot gate -->
  <rect x="300" y="60" width="180" height="36" fill="#fee" stroke="#c88"/>
  <text x="310" y="84" font-size="18" font-family="Arial" fill="#833">θ̇(t) gate (on during transit)</text>
  <!-- Marker definition -->
  <defs>
    <marker id="arrow" markerWidth="10" markerHeight="7" refX="0" refY="3.5" orient="auto">
      <polygon points="0 0, 10 3.5, 0 7" fill="#cc0000" />
    </marker>
  </defs>
  <!-- Caption -->
  <text x="100" y="460" font-size="18" font-family="Arial">Cross–Hall drift: Δy ∝ (∂y Aθ) · θ̇ · T²</text>
</svg>